# xmcd
#
# Track frame offsets: 
#        150
#        13593
#        28064
#        42518
#        62150
#
# Disc length: 1044 seconds
#
# Revision: 0
# Processed by: cddbd v1.5.2PL0 Copyright (c) Steve Scherf et al.
# Submitted via: ExactAudioCopy v0.99pb5
#
DISCID=3d041205
DTITLE=Paige - If You Say So
DYEAR=2008
DGENRE=Pop Punk
TTITLE0=Dear Heartstrings...
TTITLE1=This Is How We Roll!
TTITLE2=You've Got Guts (Shame We've Gotta Clean 'Em Up)
TTITLE3=Silhouettes
TTITLE4=Actions
EXTD=
EXTT0=
EXTT1=
EXTT2=
EXTT3=
EXTT4=
PLAYORDER=
